<?xml version="1.0" standalone="no"?>
<!DOCTYPE svg PUBLIC "-//W3C//DTD SVG 20010904//EN"
 "http://www.w3.org/TR/2001/REC-SVG-20010904/DTD/svg10.dtd">
<svg version="1.0" xmlns="http://www.w3.org/2000/svg"
 width="175.000000pt" height="160.000000pt" viewBox="0 0 175.000000 160.000000"
 preserveAspectRatio="xMidYMid meet">

<g transform="translate(0.000000,160.000000) scale(0.100000,-0.100000)"
fill="#000000" stroke="none">
<path d="M590 776 l0 -336 110 0 109 0 19 -42 c25 -55 66 -93 122 -113 35 -13
249 -34 353 -35 16 0 17 22 17 330 l0 329 -32 6 c-18 3 -59 6 -91 8 -59 2 -59
2 -72 41 -18 50 -59 94 -115 119 -39 18 -70 21 -232 25 l-188 4 0 -336z m384
185 c30 -28 25 -34 -37 -45 -51 -9 -102 -57 -122 -114 -10 -26 -19 -92 -22
-149 l-6 -103 -28 0 -29 0 0 221 0 221 109 -4 c100 -3 112 -5 135 -27z m37
-168 c3 -46 -3 -131 -12 -160 -9 -28 -54 -73 -73 -73 -3 0 -6 36 -6 80 0 92
18 146 52 160 33 13 38 12 39 -7z m187 -207 l2 -219 -88 5 c-92 5 -144 24
-162 57 -9 17 -6 20 23 26 109 23 177 138 177 301 0 52 1 55 23 52 22 -3 22
-3 25 -222z"/>
</g>
</svg>
